<svg xmlns="http://www.w3.org/2000/svg" xmlns:xlink="http://www.w3.org/1999/xlink" version="1.1" width="100" height="100" viewBox="0 0 100 100" xml:space="preserve">
<desc>Created with Fabric.js 5.3.0</desc>
<defs>
</defs>
<g transform="matrix(0.9655470935 0 0 0.9665201959 50 50.5018393818)" id="W2Utd7qtQ05IBn0WNH1_G"  >
<path style="stroke: rgb(8,77,11); stroke-width: 0; stroke-dasharray: none; stroke-linecap: butt; stroke-dashoffset: 0; stroke-linejoin: miter; stroke-miterlimit: 4; fill: rgb(37,99,235); fill-rule: nonzero; opacity: 1;" vector-effect="non-scaling-stroke"  transform=" translate(0, 0)" d="M 0 -45.01529 C 24.84844 -45.01529 45.01529 -24.84844 45.01529 0 C 45.01529 24.84844 24.84844 45.01529 0 45.01529 C -24.84844 45.01529 -45.01529 24.84844 -45.01529 0 C -45.01529 -24.84844 -24.84844 -45.01529 0 -45.01529 z" stroke-linecap="round" />
</g>
<g transform="matrix(0.9250469444 0 0 0.9250469444 49.67865836 50.8235048778)" id="din-yPY4olt6IRhEr02h8"  >
<path style="stroke: rgb(37,99,235); stroke-width: 0; stroke-dasharray: none; stroke-linecap: butt; stroke-dashoffset: 0; stroke-linejoin: miter; stroke-miterlimit: 4; fill: rgb(255,255,255); fill-rule: nonzero; opacity: 1;" vector-effect="non-scaling-stroke"  transform=" translate(0, 0)" d="M 0 -36.69725 C 20.25688 -36.69725 36.69725 -20.256879999999995 36.69725 0 C 36.69725 20.25688 20.256879999999995 36.69725 0 36.69725 C -20.25688 36.69725 -36.69725 20.256879999999995 -36.69725 0 C -36.69725 -20.25688 -20.256879999999995 -36.69725 0 -36.69725 z" stroke-linecap="round" />
</g>
<g transform="matrix(0.0060443442 -0.1730873718 0.1737191688 0.006066407 41.3882188375 77.7662549478)" id="x3ma-zR8Rlkw6Etmsx_1U"  >
<path style="stroke: none; stroke-width: 1; stroke-dasharray: none; stroke-linecap: butt; stroke-dashoffset: 0; stroke-linejoin: miter; stroke-miterlimit: 4; fill: rgb(37,99,235); fill-rule: nonzero; opacity: 1;" vector-effect="non-scaling-stroke"  transform=" translate(-40, -40)" d="M 0 0 L 80 80 L 0 80 L 0 0 z" stroke-linecap="round" />
</g>
<g transform="matrix(1 0 0 1 41.3882188375 79.1641040279)" id="YxyG6MltIgrj6zpgf95Fb"  >
<path style="stroke: rgb(37,99,235); stroke-width: 0; stroke-dasharray: none; stroke-linecap: butt; stroke-dashoffset: 0; stroke-linejoin: miter; stroke-miterlimit: 4; fill: rgb(37,99,235); fill-rule: nonzero; opacity: 1;" vector-effect="non-scaling-stroke"  transform=" translate(-1.397845, -1.397845)" d="M 0 0 L 2.79569 0 L 2.79569 2.79569 L 0 2.79569 z" stroke-linecap="round" />
</g>
<g transform="matrix(0.7723352119 0 0 0.9389560687 32.3811546631 43.1465063367)" id="83z9JROdIn40LjmdngkAu"  >
<path style="stroke: rgb(37,99,235); stroke-width: 1; stroke-dasharray: none; stroke-linecap: butt; stroke-dashoffset: 0; stroke-linejoin: miter; stroke-miterlimit: 4; fill: rgb(255,255,255); fill-opacity: 0; fill-rule: nonzero; opacity: 1;" vector-effect="non-scaling-stroke"  transform=" translate(0.0000066667, -0.0000052103)" d="M 23.38643 -38.09558 C 24.18008 13.888550000000002 23.38643 19.24096 23.38643 19.24096 C 23.38643 19.24096 22.59278 35.5108 5.926110000000001 37.89175 C -10.740559999999999 40.2727 -21.446399999999997 21.16976 -23.03371 13.233250000000002 C -24.62101 5.296740000000002 -23.03371 18.324820000000003 -23.03371 18.324820000000003" stroke-linecap="round" />
</g>
<g transform="matrix(0.9021841341 0 0 0.9256682233 68.7329377372 50.8932640314)" id="q-AjTWtwBZ2tuff-8NPUZ"  >
<path style="stroke: rgb(37,99,235); stroke-width: 0; stroke-dasharray: none; stroke-linecap: butt; stroke-dashoffset: 0; stroke-linejoin: miter; stroke-miterlimit: 4; fill: rgb(37,99,235); fill-rule: nonzero; opacity: 1;" vector-effect="non-scaling-stroke"  transform=" translate(0, 0)" d="M -20.07505 -20.07505 L 20.07505 -20.07505 L 20.07505 20.07505 L -20.07505 20.07505 z" stroke-linecap="round" />
</g>
<g transform="matrix(0.4358490515 0 0 0.3467499867 68.2570658907 21.8417980209)" id="ZBfp2yAMPODwSg6RHHNzm"  >
<path style="stroke: none; stroke-width: 1; stroke-dasharray: none; stroke-linecap: butt; stroke-dashoffset: 0; stroke-linejoin: miter; stroke-miterlimit: 4; fill: rgb(37,99,235); fill-rule: nonzero; opacity: 1;" vector-effect="non-scaling-stroke"  transform=" translate(-40, -40)" d="M 0 0 L 80 80 L 0 80 L 0 0 z" stroke-linecap="round" />
</g>
<g transform="matrix(-0.1646614186 0.428957661 -0.3961154256 -0.1520544656 62.4713428596 80.2455876179)" id="ripPb2AlXxloPqCFzLyEX"  >
<path style="stroke: none; stroke-width: 1; stroke-dasharray: none; stroke-linecap: butt; stroke-dashoffset: 0; stroke-linejoin: miter; stroke-miterlimit: 4; fill: rgb(37,99,235); fill-rule: nonzero; opacity: 1;" vector-effect="non-scaling-stroke"  transform=" translate(-40, -40)" d="M 0 0 L 80 80 L 0 80 L 0 0 z" stroke-linecap="round" />
</g>
<g transform="matrix(0.1022310308 -0.1022310308 0.1022310308 0.1022310308 36.4273863011 78.3616883745)" id="aIeuIwUmSNNpbbEBv8OH2"  >
<path style="stroke: none; stroke-width: 1; stroke-dasharray: none; stroke-linecap: butt; stroke-dashoffset: 0; stroke-linejoin: miter; stroke-miterlimit: 4; fill: rgb(37,99,235); fill-rule: nonzero; opacity: 1;" vector-effect="non-scaling-stroke"  transform=" translate(-40, -40)" d="M 0 0 L 80 80 L 0 80 L 0 0 z" stroke-linecap="round" />
</g>
<g transform="matrix(1.5015570635 -0.6685362773 0.2162352869 0.4856724063 62.2359034014 81.454409113)" id="6hPBs5XdT41yyhXhSPgSE"  >
<path style="stroke: rgb(37,99,235); stroke-width: 0; stroke-dasharray: none; stroke-linecap: butt; stroke-dashoffset: 0; stroke-linejoin: miter; stroke-miterlimit: 4; fill: rgb(37,99,235); fill-rule: nonzero; opacity: 1;" vector-effect="non-scaling-stroke"  transform=" translate(0, 0)" d="M -8.16135 -8.16135 L 8.16135 -8.16135 L 8.16135 8.16135 L -8.16135 8.16135 z" stroke-linecap="round" />
</g>
</svg>